<svg width="19" height="18" viewBox="0 0 19 18" fill="none" xmlns="http://www.w3.org/2000/svg">
<path d="M6.33319 9.00554C6.33011 7.34894 7.74539 6.00319 9.49369 6.00027C11.2423 5.99704 12.6631 7.33726 12.6665 8.99418C12.6699 10.6511 11.2546 11.9965 9.50568 11.9998C7.75738 12.0029 6.33657 10.6625 6.33319 9.00554ZM4.62215 9.00873C4.62739 11.5612 6.81554 13.6257 9.50909 13.6207C12.2029 13.6158 14.3834 11.5434 14.3782 8.99095C14.373 6.43941 12.1845 4.37369 9.49032 4.37865C6.79673 4.38361 4.61692 6.45691 4.62215 9.00873ZM13.4209 4.18912C13.4222 4.78513 13.9337 5.26775 14.5629 5.26659C15.1923 5.26543 15.7017 4.78105 15.7008 4.18504C15.6996 3.589 15.188 3.1061 14.5586 3.10726C13.9291 3.10842 13.4197 3.59305 13.4209 4.18912ZM5.67636 16.3321C4.75018 16.2939 4.24724 16.1481 3.91206 16.0259C3.4682 15.8632 3.15147 15.6681 2.81811 15.3547C2.48539 15.04 2.27884 14.7408 2.10554 14.3212C1.97536 14.0036 1.81868 13.5277 1.77527 12.6503C1.72817 11.7017 1.71741 11.4171 1.71281 9.01401C1.70787 6.61146 1.71711 6.32687 1.76083 5.37741C1.8005 4.50054 1.95536 4.02347 2.08402 3.70622C2.25576 3.28515 2.46108 2.98565 2.79258 2.66984C3.12468 2.35407 3.44048 2.15895 3.88371 1.99477C4.21863 1.87085 4.72094 1.72358 5.64682 1.68188C6.6487 1.63699 6.9488 1.62735 9.48479 1.62268C12.0213 1.61804 12.3217 1.62647 13.324 1.6682C14.2495 1.70638 14.7531 1.85161 15.0877 1.97438C15.5318 2.13708 15.8485 2.33101 16.1816 2.64565C16.5146 2.9603 16.7212 3.25889 16.8945 3.67967C17.0252 3.99608 17.1807 4.47255 17.2244 5.34939C17.2721 6.29857 17.2829 6.5832 17.2875 8.98571C17.2924 11.3888 17.2832 11.6734 17.2392 12.6223C17.1989 13.4997 17.0453 13.9765 16.916 14.2944C16.7442 14.7146 16.539 15.0146 16.2071 15.3305C15.8753 15.6451 15.5595 15.8413 15.116 16.0055C14.7817 16.1292 14.2788 16.2767 13.3535 16.3184C12.3516 16.363 12.0515 16.3732 9.51462 16.3776C6.97864 16.3822 6.67857 16.3732 5.67636 16.3321ZM5.56555 0.0623349C4.55473 0.107511 3.86434 0.260898 3.26102 0.484843C2.6365 0.715504 2.1071 1.02463 1.58048 1.52561C1.05319 2.02687 0.729373 2.52929 0.487753 3.12153C0.253853 3.69454 0.095321 4.34891 0.0506784 5.30713C0.00636972 6.26711 -0.00379827 6.57328 0.00113728 9.01721C0.00607284 11.4609 0.0174283 11.7676 0.0657448 12.7279C0.114061 13.6852 0.275376 14.339 0.511763 14.9108C0.755535 15.5025 1.0815 16.0037 1.61061 16.503C2.13942 17.0022 2.67009 17.3087 3.29553 17.5379C3.89974 17.7592 4.59072 17.91 5.60188 17.952C6.61515 17.9943 6.93863 18.0036 9.5177 17.9989C12.098 17.9943 12.4215 17.9835 13.4348 17.938C14.4456 17.8922 15.1354 17.7388 15.7393 17.5154C16.3638 17.2839 16.8932 16.9757 17.4199 16.4744C17.9465 15.9734 18.2703 15.4707 18.512 14.8782C18.7459 14.3057 18.905 13.6511 18.949 12.6937C18.9933 11.7332 19.0038 11.4264 18.9989 8.98279C18.9939 6.53886 18.9823 6.23269 18.9343 5.27299C18.8862 4.31481 18.7243 3.66129 18.4882 3.08915C18.2442 2.49751 17.9185 1.99653 17.3897 1.49703C16.8609 0.99809 16.3303 0.690719 15.7048 0.462414C15.1003 0.240753 14.4096 0.0897217 13.3985 0.0483076C12.3852 0.00576843 12.0617 -0.00358314 9.48167 0.00109265C6.90231 0.00576844 6.57882 0.016245 5.56555 0.0623349Z" fill="#1B1A28"/>
</svg>
