<svg width="220" height="109" viewBox="0 0 220 109" fill="none" xmlns="http://www.w3.org/2000/svg">
<path d="M188.446 105.301C190.428 105.301 192.137 105.01 193.574 104.427C195.011 103.845 196.235 103.029 197.245 101.98C198.255 100.97 199.11 99.7659 199.809 98.3674C200.508 96.969 201.091 95.454 201.557 93.8224L190.777 68.359C190.428 67.5432 190.078 66.9217 189.728 66.4944C189.379 66.0282 188.971 65.7175 188.505 65.5621C188.039 65.3679 187.417 65.2707 186.64 65.2707H186.465V62.8235H200.45V65.2707H200.275C199.11 65.2707 198.236 65.5038 197.653 65.97C197.07 66.3973 196.779 67.0965 196.779 68.0676C196.779 68.3784 196.818 68.7086 196.895 69.0582C196.973 69.4078 197.09 69.7963 197.245 70.2236L201.499 80.5954C201.887 81.4889 202.256 82.4795 202.606 83.5671C202.994 84.616 203.344 85.626 203.655 86.5971C203.965 87.5683 204.179 88.384 204.296 89.0444C204.567 87.9179 204.917 86.7525 205.344 85.5483C205.811 84.3441 206.238 83.1593 206.626 81.9939L210.53 70.6315C210.725 70.1653 210.86 69.7186 210.938 69.2913C211.016 68.8251 211.055 68.4367 211.055 68.1259C211.055 67.1159 210.725 66.3973 210.064 65.97C209.443 65.5038 208.491 65.2707 207.209 65.2707H207.034V62.8235H219.154V65.2707H218.979C218.241 65.2707 217.62 65.3873 217.115 65.6204C216.61 65.8534 216.163 66.3002 215.774 66.9605C215.425 67.6209 215.017 68.5726 214.551 69.8157L205.694 94.2886C204.684 97.1243 203.713 99.4357 202.781 101.223C201.848 103.009 200.799 104.389 199.634 105.36C198.507 106.37 197.09 107.069 195.38 107.457C193.671 107.846 191.535 108.04 188.971 108.04H188.446V105.301Z" fill="#1B1A28"/>
<path d="M158.98 94.0555V91.6082H159.155C160.048 91.6082 160.844 91.5111 161.544 91.3169C162.282 91.1226 162.864 90.7342 163.292 90.1515C163.719 89.53 163.933 88.6171 163.933 87.4129V69.233C163.933 68.0676 163.7 67.213 163.233 66.6692C162.806 66.0865 162.223 65.7175 161.485 65.5621C160.786 65.3678 160.009 65.2707 159.155 65.2707H158.98V62.8234H167.953L169.06 68.5921H169.352C169.857 67.4267 170.4 66.3584 170.983 65.3873C171.566 64.4161 172.343 63.6586 173.314 63.1148C174.285 62.5321 175.625 62.2408 177.334 62.2408C179.471 62.2408 181.044 62.6098 182.054 63.3479C183.103 64.0859 183.627 65.1348 183.627 66.4944C183.627 67.6986 183.2 68.6892 182.346 69.4661C181.53 70.243 180.151 70.6315 178.208 70.6315C178.208 69.5438 178.111 68.6697 177.917 68.0094C177.723 67.349 177.393 66.8634 176.927 66.5526C176.499 66.2419 175.897 66.0865 175.12 66.0865C174.033 66.0865 173.12 66.5138 172.382 67.3684C171.643 68.223 171.061 69.3107 170.633 70.6315C170.206 71.9522 169.895 73.3312 169.701 74.7685C169.507 76.167 169.41 77.4295 169.41 78.556V87.7042C169.41 88.8307 169.623 89.6853 170.051 90.268C170.517 90.8119 171.1 91.1809 171.799 91.3751C172.537 91.5305 173.333 91.6082 174.188 91.6082H175.819V94.0555H158.98Z" fill="#1B1A28"/>
<path d="M134.421 94.6382C132.712 94.6382 131.158 94.308 129.759 93.6476C128.4 92.9484 127.331 91.919 126.555 90.5594C125.778 89.1609 125.389 87.4129 125.389 85.3152C125.389 82.2075 126.477 79.9156 128.652 78.4395C130.866 76.9633 134.207 76.1476 138.674 75.9922L143.511 75.8174V72.3213C143.511 70.9228 143.394 69.6992 143.161 68.6503C142.928 67.5626 142.423 66.708 141.646 66.0865C140.869 65.465 139.684 65.1542 138.092 65.1542C136.616 65.1542 135.489 65.4261 134.712 65.97C133.935 66.5138 133.411 67.2713 133.139 68.2424C132.906 69.1747 132.789 70.2624 132.789 71.5055C131.158 71.5055 129.915 71.2336 129.06 70.6897C128.244 70.107 127.836 69.1553 127.836 67.8346C127.836 66.4749 128.303 65.3873 129.235 64.5715C130.206 63.7557 131.488 63.1731 133.081 62.8234C134.673 62.435 136.421 62.2408 138.325 62.2408C141.899 62.2408 144.56 62.9982 146.308 64.5132C148.095 66.0282 148.988 68.6309 148.988 72.3213V87.4129C148.988 88.5005 149.105 89.3552 149.338 89.9767C149.571 90.5594 149.959 90.9867 150.503 91.2586C151.047 91.4917 151.746 91.6082 152.601 91.6082H152.775V94.0555H144.909L143.977 89.0444H143.511C142.695 90.1321 141.899 91.1032 141.122 91.9578C140.345 92.7736 139.432 93.434 138.383 93.939C137.373 94.4051 136.052 94.6382 134.421 94.6382ZM135.761 91.0255C137.354 91.0255 138.713 90.6953 139.84 90.035C141.005 89.3746 141.899 88.4423 142.52 87.2381C143.181 85.995 143.511 84.5577 143.511 82.9262V78.2064L139.782 78.3812C137.567 78.4589 135.819 78.7891 134.537 79.3718C133.294 79.9545 132.401 80.7702 131.857 81.8191C131.313 82.829 131.041 84.0915 131.041 85.6065C131.041 86.8108 131.216 87.8207 131.566 88.6365C131.915 89.4134 132.44 90.0155 133.139 90.4428C133.838 90.8313 134.712 91.0255 135.761 91.0255Z" fill="#1B1A28"/>
<path d="M96.3613 94.0555V91.6082H96.5361C97.4295 91.6082 98.2259 91.5111 98.9251 91.3169C99.6632 91.1226 100.246 90.7342 100.673 90.1515C101.1 89.53 101.314 88.6171 101.314 87.4129V69.233C101.314 68.0676 101.081 67.213 100.615 66.6692C100.188 66.0865 99.6049 65.7175 98.8668 65.5621C98.1676 65.3678 97.3907 65.2707 96.5361 65.2707H96.3613V62.8234H105.335L106.442 68.5921H106.733C107.238 67.4267 107.782 66.3584 108.365 65.3873C108.947 64.4161 109.724 63.6586 110.695 63.1148C111.667 62.5321 113.007 62.2408 114.716 62.2408C116.852 62.2408 118.426 62.6098 119.436 63.3479C120.485 64.0859 121.009 65.1348 121.009 66.4944C121.009 67.6986 120.582 68.6892 119.727 69.4661C118.911 70.243 117.532 70.6315 115.59 70.6315C115.59 69.5438 115.493 68.6697 115.299 68.0094C115.104 67.349 114.774 66.8634 114.308 66.5526C113.881 66.2419 113.279 66.0865 112.502 66.0865C111.414 66.0865 110.501 66.5138 109.763 67.3684C109.025 68.223 108.442 69.3107 108.015 70.6315C107.588 71.9522 107.277 73.3312 107.083 74.7685C106.888 76.167 106.791 77.4295 106.791 78.556V87.7042C106.791 88.8307 107.005 89.6853 107.432 90.268C107.898 90.8119 108.481 91.1809 109.18 91.3751C109.918 91.5305 110.715 91.6082 111.569 91.6082H113.201V94.0555H96.3613Z" fill="#1B1A28"/>
<path d="M77.5837 94.6382C75.3307 94.6382 73.4855 94.172 72.0482 93.2397C70.6497 92.2686 69.5232 91.0255 68.6686 89.5105H68.319L67.2701 94.0555H57.9471V91.6082H58.4133C59.3068 91.6082 60.1031 91.5111 60.8023 91.3168C61.5404 91.1226 62.1231 90.7342 62.5504 90.1515C62.9777 89.5299 63.1913 88.6171 63.1913 87.4128V56.1808C63.1913 55.0154 62.9583 54.1608 62.4921 53.617C62.0648 53.0343 61.4821 52.6652 60.744 52.5098C60.0448 52.3156 59.2679 52.2185 58.4133 52.2185H57.9471V49.7712H68.6686V60.4927C68.6686 61.153 68.6492 62.0077 68.6103 63.0565C68.6103 64.0665 68.5909 65.0571 68.5521 66.0282C68.5132 66.9605 68.4744 67.6403 68.4355 68.0676H68.6686C69.5621 66.2807 70.708 64.8628 72.1065 63.814C73.5049 62.7651 75.3307 62.2407 77.5837 62.2407C81.4295 62.2407 84.3623 63.5421 86.3823 66.1447C88.4411 68.7086 89.4706 72.7874 89.4706 78.3812C89.4706 82.1104 89.0044 85.1792 88.0721 87.5876C87.1786 89.9961 85.8385 91.783 84.0516 92.9484C82.3035 94.0749 80.1475 94.6382 77.5837 94.6382ZM76.6514 90.909C79.2152 90.909 81.041 89.8407 82.1287 87.7042C83.2552 85.5288 83.8185 82.4017 83.8185 78.3229C83.8185 74.1664 83.2552 71.0782 82.1287 69.0582C81.041 66.9993 79.1958 65.9699 76.5932 65.9699C73.5632 65.9699 71.4849 66.9993 70.3584 69.0582C69.2319 71.0782 68.6686 74.1858 68.6686 78.3812C68.6686 81.0615 68.9017 83.334 69.3678 85.1986C69.8728 87.0632 70.708 88.4811 71.8734 89.4522C73.0388 90.4234 74.6314 90.909 76.6514 90.909Z" fill="#1B1A28"/>
<path d="M37.8262 94.0555V91.6082H38.5837C39.4383 91.6082 40.2153 91.5305 40.9145 91.3751C41.6526 91.1809 42.2352 90.8118 42.6625 90.268C43.1287 89.6853 43.3618 88.8307 43.3618 87.7042V69.233C43.3618 68.0676 43.1287 67.213 42.6625 66.6692C42.2352 66.0865 41.6526 65.7174 40.9145 65.562C40.2153 65.3678 39.4383 65.2707 38.5837 65.2707H38.4089V62.8234H48.839V87.4128C48.839 88.6171 49.0527 89.5299 49.48 90.1515C49.9073 90.7342 50.49 91.1226 51.2281 91.3168C51.9661 91.5111 52.7625 91.6082 53.6171 91.6082H54.3746V94.0555H37.8262ZM45.8673 56.9965C44.935 56.9965 44.1387 56.7246 43.4783 56.1808C42.8568 55.6369 42.546 54.7046 42.546 53.3839C42.546 52.0243 42.8568 51.092 43.4783 50.587C44.1387 50.0431 44.935 49.7712 45.8673 49.7712C46.7608 49.7712 47.5377 50.0431 48.1981 50.587C48.8585 51.092 49.1886 52.0243 49.1886 53.3839C49.1886 54.7046 48.8585 55.6369 48.1981 56.1808C47.5377 56.7246 46.7608 56.9965 45.8673 56.9965Z" fill="#1B1A28"/>
<path d="M0.64801 94.0555V91.6082H1.4055C2.29896 91.6082 3.0953 91.5111 3.79452 91.3169C4.5326 91.1226 5.11528 90.7342 5.54259 90.1515C5.96989 89.53 6.18354 88.6171 6.18354 87.4129V59.0942C6.18354 57.8512 5.96989 56.9383 5.54259 56.3556C5.11528 55.7729 4.5326 55.3845 3.79452 55.1902C3.0953 54.996 2.29896 54.8989 1.4055 54.8989H0.64801V52.4516H17.6042V54.8989H16.8467C15.9921 54.8989 15.1958 54.996 14.4577 55.1902C13.7585 55.3456 13.1758 55.7147 12.7096 56.2973C12.2823 56.8412 12.0687 57.6958 12.0687 58.8612V91.1421H23.5476C24.713 91.1421 25.6453 90.8896 26.3445 90.3846C27.0826 89.8407 27.6265 89.1609 27.9761 88.3452C28.3257 87.5294 28.5588 86.7136 28.6753 85.8979L29.258 81.5277H32.288L31.8801 94.0555H0.64801Z" fill="#1B1A28"/>
<path d="M170.545 44.8669C168.603 44.8669 166.913 44.6339 165.476 44.1677C164.038 43.7016 162.912 43.0218 162.096 42.1283C161.319 41.196 160.931 40.05 160.931 38.6904C160.931 37.6416 161.144 36.8258 161.572 36.2432C161.999 35.6605 162.485 35.2526 163.028 35.0195C163.611 34.7864 164.136 34.6699 164.602 34.6699C164.602 36.6899 165.048 38.438 165.942 39.9141C166.874 41.3514 168.525 42.07 170.895 42.07C172.954 42.07 174.527 41.5845 175.615 40.6133C176.741 39.6033 177.304 38.3214 177.304 36.7676C177.304 35.7964 177.091 35.0001 176.663 34.3786C176.275 33.757 175.556 33.1549 174.507 32.5722C173.497 31.9507 172.041 31.232 170.137 30.4163C168.156 29.5228 166.505 28.6682 165.184 27.8525C163.902 26.9978 162.931 26.0267 162.271 24.939C161.649 23.8125 161.339 22.414 161.339 20.7437C161.339 18.1021 162.329 16.0822 164.31 14.6837C166.33 13.2464 168.991 12.5278 172.293 12.5278C174.158 12.5278 175.712 12.7803 176.955 13.2853C178.237 13.7514 179.188 14.3924 179.81 15.2081C180.47 16.0239 180.8 16.9174 180.8 17.8885C180.8 18.9373 180.431 19.7919 179.693 20.4523C178.994 21.0739 177.965 21.3846 176.605 21.3846C176.605 19.4423 176.197 17.9273 175.381 16.8397C174.566 15.752 173.303 15.2081 171.594 15.2081C169.613 15.2081 168.195 15.6549 167.34 16.5483C166.486 17.4029 166.058 18.51 166.058 19.8696C166.058 20.8408 166.292 21.6565 166.758 22.3169C167.263 22.9773 168.04 23.5988 169.088 24.1815C170.176 24.7254 171.575 25.3469 173.284 26.0461C175.343 26.9007 177.013 27.7553 178.295 28.6099C179.577 29.4646 180.509 30.4551 181.092 31.5817C181.713 32.7082 182.024 34.0872 182.024 35.7187C182.024 38.7487 180.975 41.0406 178.878 42.5945C176.78 44.1094 174.002 44.8669 170.545 44.8669Z" fill="#1B1A28"/>
<path d="M146.644 16.7231C147.926 16.2958 148.974 15.8297 149.79 15.3247C150.606 14.7808 151.208 14.1982 151.596 13.5766C151.985 12.9162 152.179 12.217 152.179 11.4789C152.179 10.8963 151.965 10.4495 151.538 10.1388C151.111 9.82799 150.606 9.53665 150.023 9.26473C149.479 8.99281 148.994 8.62377 148.566 8.15763C148.139 7.69147 147.926 7.01167 147.926 6.11822C147.926 4.99169 148.275 4.13708 148.974 3.55439C149.712 2.9717 150.625 2.68036 151.713 2.68036C152.917 2.68036 153.966 3.12709 154.86 4.02054C155.753 4.87515 156.2 6.11822 156.2 7.74974C156.2 10.2359 155.462 12.5084 153.985 14.5672C152.548 16.626 150.101 18.1604 146.644 19.1704V16.7231Z" fill="#1B1A28"/>
<path d="M110.111 44.2843V41.837H110.577C111.471 41.837 112.267 41.7399 112.967 41.5456C113.705 41.3514 114.287 40.9629 114.715 40.3803C115.142 39.7587 115.356 38.8458 115.356 37.6416V6.40957C115.356 5.24419 115.122 4.38958 114.656 3.84574C114.229 3.26305 113.646 2.89402 112.908 2.73863C112.209 2.5444 111.432 2.44729 110.577 2.44729H110.111V0H120.833V22.4917C120.833 22.9967 120.813 23.6571 120.775 24.4729C120.775 25.2886 120.755 26.1044 120.716 26.9202C120.677 27.7359 120.639 28.4352 120.6 29.0178C120.6 29.5617 120.6 29.8336 120.6 29.8336L127.883 21.8508C128.738 20.9185 129.379 20.1416 129.806 19.52C130.272 18.8597 130.603 18.3158 130.797 17.8885C130.991 17.4224 131.088 17.0145 131.088 16.6649C131.088 16.1599 130.855 15.8491 130.389 15.7326C129.923 15.5772 129.204 15.4995 128.233 15.4995V13.0522H141.11V15.4995C140.45 15.4995 139.79 15.616 139.129 15.8491C138.469 16.0822 137.808 16.4318 137.148 16.8979C136.488 17.3641 135.808 17.9468 135.109 18.646C134.409 19.3064 133.671 20.0639 132.894 20.9185L128.816 25.5217L136.565 37.0589C137.575 38.6128 138.566 39.7976 139.537 40.6133C140.547 41.4291 141.712 41.837 143.033 41.837H143.208V44.2843H142.392C140.722 44.2843 139.323 44.226 138.197 44.1095C137.07 43.9929 136.119 43.7598 135.342 43.4102C134.604 43.0218 133.885 42.4585 133.186 41.7204C132.525 40.9435 131.787 39.9141 130.972 38.6322L125.145 29.484L120.833 32.6888V37.933C120.833 39.0595 121.046 39.9141 121.474 40.4968C121.94 41.0406 122.523 41.4097 123.222 41.6039C123.96 41.7593 124.756 41.837 125.611 41.837H125.786V44.2843H110.111Z" fill="#1B1A28"/>
<path d="M90.4079 44.8669C86.2125 44.8669 82.9106 43.5268 80.5022 40.8464C78.0937 38.166 76.8895 34.0872 76.8895 28.61C76.8895 23.1715 78.0355 19.1316 80.3274 16.4901C82.6581 13.8097 86.0766 12.4695 90.5827 12.4695C94.778 12.4695 98.0799 13.8097 100.488 16.4901C102.897 19.1316 104.101 23.1715 104.101 28.61C104.101 34.0872 102.936 38.166 100.605 40.8464C98.313 43.5268 94.914 44.8669 90.4079 44.8669ZM90.5244 41.837C92.4667 41.837 94.0205 41.3514 95.1859 40.3803C96.3513 39.3703 97.1865 37.8747 97.6915 35.8936C98.1965 33.9124 98.449 31.4846 98.449 28.61C98.449 24.2592 97.8469 20.9962 96.6426 18.8208C95.4384 16.6454 93.3796 15.5578 90.4661 15.5578C87.5527 15.5578 85.4939 16.6454 84.2897 18.8208C83.1243 20.9962 82.5416 24.2592 82.5416 28.61C82.5416 32.9607 83.1437 36.2626 84.3479 38.5157C85.5521 40.7299 87.611 41.837 90.5244 41.837Z" fill="#1B1A28"/>
<path d="M55.0301 44.8669C50.8347 44.8669 47.5328 43.5268 45.1244 40.8464C42.7159 38.166 41.5117 34.0872 41.5117 28.61C41.5117 23.1715 42.6577 19.1316 44.9496 16.4901C47.2803 13.8097 50.6988 12.4695 55.2049 12.4695C59.4002 12.4695 62.7021 13.8097 65.1106 16.4901C67.519 19.1316 68.7232 23.1715 68.7232 28.61C68.7232 34.0872 67.5579 38.166 65.2271 40.8464C62.9352 43.5268 59.5362 44.8669 55.0301 44.8669ZM55.1466 41.837C57.0889 41.837 58.6427 41.3514 59.8081 40.3803C60.9735 39.3703 61.8087 37.8747 62.3137 35.8936C62.8187 33.9124 63.0712 31.4846 63.0712 28.61C63.0712 24.2592 62.4691 20.9962 61.2648 18.8208C60.0606 16.6454 58.0018 15.5578 55.0883 15.5578C52.1749 15.5578 50.1161 16.6454 48.9119 18.8208C47.7465 20.9962 47.1638 24.2592 47.1638 28.61C47.1638 32.9607 47.7659 36.2626 48.9701 38.5157C50.1743 40.7299 52.2332 41.837 55.1466 41.837Z" fill="#1B1A28"/>
<path d="M0.64801 44.2843V41.837H1.4055C2.29896 41.837 3.0953 41.7399 3.79452 41.5456C4.5326 41.3514 5.11528 40.9629 5.54259 40.3803C5.96989 39.7587 6.18354 38.8458 6.18354 37.6416V9.08992C6.18354 7.92455 5.95047 7.06994 5.48432 6.5261C5.05701 5.94341 4.47433 5.57437 3.73626 5.41899C3.03703 5.22476 2.26011 5.12765 1.4055 5.12765H0.64801V2.68036H16.264C21.314 2.68036 25.0626 3.53497 27.5099 5.24419C29.996 6.91456 31.2391 9.53665 31.2391 13.1105C31.2391 14.8197 30.9284 16.2764 30.3068 17.4806C29.6853 18.6848 28.8307 19.6754 27.743 20.4523C26.6553 21.1904 25.4122 21.7925 24.0138 22.2587V22.4917C25.8007 22.8025 27.3545 23.4046 28.6753 24.2981C30.0349 25.1527 31.0837 26.3181 31.8218 27.7942C32.5987 29.2315 32.9872 30.9796 32.9872 33.0384C32.9872 36.8064 31.7441 39.6228 29.258 41.4874C26.8107 43.352 23.0621 44.2843 18.0121 44.2843H0.64801ZM17.7208 41.3708C21.0227 41.3708 23.3534 40.7299 24.713 39.448C26.0726 38.166 26.7524 35.9713 26.7524 32.8636C26.7524 30.8436 26.4805 29.1732 25.9367 27.8525C25.3928 26.5317 24.4799 25.5606 23.198 24.939C21.9161 24.2787 20.1292 23.9485 17.8373 23.9485H12.0687V41.3708H17.7208ZM16.0892 21.035C18.3811 21.035 20.1681 20.7631 21.45 20.2193C22.7319 19.6754 23.6448 18.8208 24.1886 17.6554C24.7324 16.4901 25.0044 14.9751 25.0044 13.1105C25.0044 10.2359 24.3246 8.27416 22.965 7.22532C21.6053 6.13764 19.2746 5.5938 15.9727 5.5938H12.0687V21.035H16.0892Z" fill="#1B1A28"/>
</svg>
