<svg width="185" height="102" viewBox="0 0 185 102" fill="none" xmlns="http://www.w3.org/2000/svg">
<path d="M170.225 92.1333C169.009 95.5933 167.621 98.1027 166.062 99.6616C164.503 101.221 162.317 102 159.503 102V98.578C161.024 98.578 162.317 98.3879 163.381 98.0077C164.484 97.6655 165.435 97.0001 166.233 96.0115C167.031 95.023 167.754 93.5971 168.4 91.7341L169.256 89.2816H168.457L159.902 65.4418C159.56 64.4533 159.294 63.8639 159.104 63.6738C158.914 63.4837 158.515 63.3506 157.906 63.2746L155.112 62.9324V61.5066H166.575V62.9324L163.781 63.2746C163.172 63.3506 162.849 63.4837 162.811 63.6738C162.773 63.8639 162.925 64.4533 163.267 65.4418L170.51 85.7456L177.697 65.4418C178.039 64.4533 178.172 63.8639 178.096 63.6738C178.058 63.4837 177.735 63.3506 177.126 63.2746L174.332 62.9324V61.5066H184.427V62.9324L181.632 63.2746C181.062 63.3126 180.681 63.4457 180.491 63.6738C180.339 63.8639 180.073 64.4533 179.693 65.4418L170.225 92.1333Z" fill="#0E0935"/>
<path d="M133.336 62.9323V61.5065H140.921V65.9551C142.366 64.1681 143.754 62.8943 145.085 62.1339C146.416 61.3354 147.727 60.9362 149.02 60.9362C151.644 60.9362 153.659 62.286 155.066 64.9855L152.271 66.9247C151.663 65.6699 150.997 64.7764 150.275 64.2441C149.59 63.7118 148.754 63.4456 147.765 63.4456C146.701 63.4456 145.674 63.7878 144.686 64.4722C143.697 65.1186 142.518 66.3923 141.15 68.2934V84.776C141.15 86.1067 141.207 86.9052 141.321 87.1714C141.435 87.3995 141.796 87.5326 142.404 87.5706L146.682 87.8558V89.2816H133.336V87.8558L136.473 87.5706C137.081 87.4945 137.442 87.3425 137.556 87.1143C137.671 86.8862 137.728 86.1067 137.728 84.776V66.0121C137.728 64.6814 137.671 63.9019 137.556 63.6738C137.442 63.4076 137.081 63.2555 136.473 63.2175L133.336 62.9323Z" fill="#0E0935"/>
<path d="M125.751 89.5667C124.458 89.5667 123.394 89.2055 122.557 88.4831C121.721 87.7227 121.208 86.6771 121.017 85.3463C119.611 86.9432 118.09 88.1029 116.455 88.8253C114.82 89.5097 113.204 89.8519 111.607 89.8519C108.945 89.8519 106.987 89.1105 105.733 87.6276C104.516 86.1068 103.908 84.3387 103.908 82.3236C103.908 80.0803 104.649 78.3312 106.132 77.0765C107.615 75.8218 110.143 75.1944 113.717 75.1944H120.96V70.5748C120.96 67.533 120.371 65.4608 119.192 64.3582C118.014 63.2175 116.417 62.6472 114.402 62.6472C113.109 62.6472 111.968 62.8753 110.98 63.3316C109.991 63.7498 109.269 64.5483 108.812 65.727C108.356 66.8676 108.242 68.5216 108.47 70.6888L105.162 70.1185C104.934 67.457 105.619 65.2707 107.215 63.5597C108.812 61.8107 111.246 60.9362 114.516 60.9362C117.139 60.9362 119.154 61.3925 120.561 62.305C122.006 63.1795 122.995 64.3582 123.527 65.841C124.097 67.2859 124.382 68.8638 124.382 70.5748V83.1791C124.382 85.1182 124.63 86.3349 125.124 86.8292C125.656 87.3234 126.226 87.5706 126.835 87.5706C127.139 87.5706 127.5 87.4945 127.918 87.3425C128.337 87.1904 128.755 86.9242 129.173 86.544L130.2 87.9128C129.667 88.4071 129.04 88.8063 128.318 89.1105C127.595 89.4147 126.74 89.5667 125.751 89.5667ZM112.577 87.8558C113.679 87.8558 114.934 87.5516 116.341 86.9432C117.786 86.3349 119.325 84.9851 120.96 82.8939V76.9054H114.173C111.854 76.9054 110.162 77.3237 109.098 78.1602C108.033 78.9586 107.501 80.2514 107.501 82.0384C107.501 83.8635 107.919 85.2893 108.755 86.3159C109.592 87.3425 110.866 87.8558 112.577 87.8558Z" fill="#0E0935"/>
<path d="M78.1968 62.9323V61.5065H85.7822V65.9551C87.227 64.1681 88.6148 62.8943 89.9456 62.1339C91.2763 61.3354 92.5881 60.9362 93.8808 60.9362C96.5044 60.9362 98.5195 62.286 99.9263 64.9855L97.1317 66.9247C96.5234 65.6699 95.858 64.7764 95.1356 64.2441C94.4512 63.7118 93.6147 63.4456 92.6261 63.4456C91.5615 63.4456 90.5349 63.7878 89.5463 64.4722C88.5578 65.1186 87.3791 66.3923 86.0103 68.2934V84.776C86.0103 86.1067 86.0673 86.9052 86.1814 87.1714C86.2955 87.3995 86.6567 87.5326 87.265 87.5706L91.5425 87.8558V89.2816H78.1968V87.8558L81.3336 87.5706C81.9419 87.4945 82.3031 87.3425 82.4172 87.1143C82.5313 86.8862 82.5883 86.1067 82.5883 84.776V66.0121C82.5883 64.6814 82.5313 63.9019 82.4172 63.6738C82.3031 63.4076 81.9419 63.2555 81.3336 63.2175L78.1968 62.9323Z" fill="#0E0935"/>
<path d="M44.873 48.503V47.0772H52.6865V65.4988C53.9032 63.8259 55.234 62.6472 56.6788 61.9628C58.1617 61.2784 59.7206 60.9362 61.3555 60.9362C64.7015 60.9362 67.2489 62.1529 68.9979 64.5863C70.747 66.9817 71.6215 70.3847 71.6215 74.7952V75.9359C71.6215 80.1943 70.5949 83.5783 68.5417 86.0877C66.5265 88.5972 63.6939 89.8519 60.0438 89.8519C58.5989 89.8519 57.2491 89.5858 55.9944 89.0535C54.7397 88.5212 53.618 87.7227 52.6295 86.6581C52.1732 87.0383 51.774 87.4755 51.4318 87.9698C51.1276 88.4641 50.8234 88.9964 50.5193 89.5668H49.2645V51.5828C49.2645 50.252 49.2075 49.4726 49.0934 49.2444C48.9794 48.9783 48.6182 48.8262 48.0098 48.7882L44.873 48.503ZM61.1274 62.6472C59.7966 62.6472 58.3898 63.0274 56.9069 63.7878C55.4621 64.5483 54.0553 66.0692 52.6865 68.3505V83.8064C54.4735 86.6961 56.926 88.1409 60.0438 88.1409C62.7433 88.1409 64.7015 87.2094 65.9182 85.3463C67.1349 83.4832 67.7432 80.9168 67.7432 77.6469V73.0842C67.7432 69.4721 67.1729 66.8296 66.0322 65.1566C64.8916 63.4837 63.2566 62.6472 61.1274 62.6472Z" fill="#0E0935"/>
<path d="M34.8954 54.0922C34.1729 54.0922 33.5646 53.8451 33.0703 53.3508C32.576 52.8565 32.3289 52.2292 32.3289 51.4687C32.3289 50.7083 32.576 50.0999 33.0703 49.6437C33.5646 49.1494 34.1729 48.9023 34.8954 48.9023C35.6558 48.9023 36.2832 49.1494 36.7774 49.6437C37.2717 50.0999 37.5189 50.7083 37.5189 51.4687C37.5189 52.2292 37.2717 52.8565 36.7774 53.3508C36.2832 53.8451 35.6558 54.0922 34.8954 54.0922ZM28.8499 62.9324V61.5065H36.6634V84.776C36.6634 86.1068 36.7204 86.8862 36.8345 87.1144C36.9485 87.3425 37.3097 87.4946 37.9181 87.5706L41.0549 87.8558V89.2816H28.8499V87.8558L31.9867 87.5706C32.595 87.4946 32.9562 87.3425 33.0703 87.1144C33.1844 86.8862 33.2414 86.1068 33.2414 84.776V66.0122C33.2414 64.6814 33.1844 63.9019 33.0703 63.6738C32.9562 63.4076 32.595 63.2555 31.9867 63.2175L28.8499 62.9324Z" fill="#0E0935"/>
<path d="M24.3497 80.0993H25.7756V89.2816H0.624023V87.8558L3.76084 87.5706C4.36919 87.4946 4.7304 87.3425 4.84446 87.1143C4.95853 86.8862 5.01556 86.1068 5.01556 84.776V55.0048C5.01556 53.674 4.95853 52.8945 4.84446 52.6664C4.7304 52.4003 4.36919 52.2482 3.76084 52.2101L0.624023 51.925V50.4992H13.1142V51.925L9.97743 52.2101C9.36908 52.2482 9.00787 52.4003 8.89381 52.6664C8.77974 52.8945 8.72271 53.674 8.72271 55.0048V87.5706H19.7301C21.0608 87.5706 21.8593 87.4946 22.1255 87.3425C22.4296 87.1524 22.6578 86.7341 22.8099 86.0877L24.3497 80.0993Z" fill="#0E0935"/>
<path d="M151.427 30.2904L148.177 29.435C146.009 28.8646 144.317 27.9521 143.101 26.6974C141.922 25.4046 141.333 23.7507 141.333 21.7355C141.333 20.4428 141.637 19.207 142.245 18.0284C142.892 16.8497 143.88 15.8801 145.211 15.1197C146.58 14.3592 148.31 13.979 150.401 13.979C152.834 13.979 154.773 14.3973 156.218 15.2337C157.663 16.0322 158.671 17.0968 159.241 18.4276C159.849 19.7203 160.039 21.1462 159.811 22.7051L156.56 23.2754C156.979 20.804 156.656 18.9219 155.591 17.6291C154.526 16.3364 152.777 15.69 150.344 15.69C148.405 15.69 146.865 16.1463 145.724 17.0588C144.584 17.9333 144.013 19.2451 144.013 20.9941C144.013 22.1728 144.393 23.1993 145.154 24.0739C145.914 24.9103 147.302 25.5947 149.317 26.127L152.625 26.9825C154.983 27.5909 156.884 28.5414 158.328 29.8342C159.773 31.1269 160.496 32.895 160.496 35.1383C160.496 37.4576 159.659 39.3397 157.986 40.7845C156.313 42.1913 153.994 42.8947 151.028 42.8947C148.367 42.8947 146.123 42.2864 144.298 41.0697C142.473 39.853 141.257 38.161 140.648 35.9937L143.443 35.0812C143.975 37.4006 144.926 39.0165 146.295 39.929C147.701 40.8035 149.317 41.2408 151.142 41.2408C152.169 41.2408 153.196 41.0697 154.222 40.7275C155.249 40.3853 156.104 39.815 156.789 39.0165C157.473 38.218 157.815 37.1724 157.815 35.8797C157.815 34.5869 157.34 33.4843 156.389 32.5718C155.439 31.6592 153.785 30.8988 151.427 30.2904Z" fill="#0E0935"/>
<path d="M136.133 5.93739C136.133 7.45827 135.677 9.18827 134.764 11.1274C133.89 13.0665 132.768 14.9296 131.399 16.7166L130.201 15.69C131.304 14.1311 132.141 12.7433 132.711 11.5266C133.319 10.3099 133.661 9.11223 133.737 7.93354H133.623C132.901 7.93354 132.312 7.70541 131.855 7.24915C131.399 6.75486 131.171 6.14651 131.171 5.42409C131.171 4.70168 131.399 4.11233 131.855 3.65607C132.312 3.1998 132.901 2.97167 133.623 2.97167C134.384 2.97167 134.992 3.21882 135.448 3.7131C135.905 4.20739 136.133 4.94882 136.133 5.93739Z" fill="#0E0935"/>
<path d="M97.014 1.54582V0.119995H104.827V30.3475L116.12 18.4846C117.109 17.458 117.622 16.8497 117.66 16.6596C117.698 16.4314 117.394 16.2984 116.747 16.2603L113.953 15.9752V14.5493H124.561V15.9752L121.766 16.2603C121.424 16.2984 121.139 16.3554 120.911 16.4314C120.683 16.5075 120.417 16.6976 120.112 17.0018C119.808 17.3059 119.314 17.8002 118.629 18.4846L111.843 25.5567L120.398 38.3891C120.854 39.0735 121.196 39.5678 121.424 39.872C121.652 40.1762 121.88 40.3663 122.108 40.4423C122.337 40.5184 122.641 40.5754 123.021 40.6134L125.816 40.8986V42.3244H118.801L109.504 28.0091L104.827 32.914V37.8188C104.827 39.1496 104.885 39.929 104.999 40.1572C105.113 40.3853 105.474 40.5374 106.082 40.6134L109.219 40.8986V42.3244H97.014V40.8986L100.151 40.6134C100.759 40.5374 101.12 40.3853 101.234 40.1572C101.348 39.929 101.406 39.1496 101.406 37.8188V4.6256C101.406 3.29483 101.348 2.51538 101.234 2.28725C101.12 2.02109 100.759 1.869 100.151 1.83098L97.014 1.54582Z" fill="#0E0935"/>
<path d="M90.9851 27.838V28.9787C90.9851 33.1991 89.9395 36.5831 87.8483 39.1306C85.7951 41.64 82.8864 42.8947 79.1223 42.8947C75.3201 42.8947 72.3924 41.64 70.3392 39.1306C68.286 36.5831 67.2594 33.1991 67.2594 28.9787V27.838C67.2594 23.6556 68.286 20.3097 70.3392 17.8002C72.3924 15.2527 75.3201 13.979 79.1223 13.979C82.9245 13.979 85.8522 15.2527 87.9053 17.8002C89.9585 20.3097 90.9851 23.6556 90.9851 27.838ZM87.1069 26.6974C87.1069 22.7431 86.4225 19.9295 85.0537 18.2565C83.6849 16.5455 81.7078 15.69 79.1223 15.69C76.5748 15.69 74.5976 16.5455 73.1908 18.2565C71.822 19.9295 71.1376 22.7431 71.1376 26.6974V30.1193C71.1376 34.0356 71.822 36.8683 73.1908 38.6173C74.5976 40.3283 76.5748 41.1837 79.1223 41.1837C81.7078 41.1837 83.6849 40.3283 85.0537 38.6173C86.4225 36.8683 87.1069 34.0356 87.1069 30.1193V26.6974Z" fill="#0E0935"/>
<path d="M59.4053 27.838V28.9787C59.4053 33.1991 58.3597 36.5831 56.2685 39.1306C54.2153 41.64 51.3067 42.8947 47.5425 42.8947C43.7403 42.8947 40.8126 41.64 38.7594 39.1306C36.7062 36.5831 35.6796 33.1991 35.6796 28.9787V27.838C35.6796 23.6556 36.7062 20.3097 38.7594 17.8002C40.8126 15.2527 43.7403 13.979 47.5425 13.979C51.3447 13.979 54.2724 15.2527 56.3256 17.8002C58.3788 20.3097 59.4053 23.6556 59.4053 27.838ZM55.5271 26.6974C55.5271 22.7431 54.8427 19.9295 53.4739 18.2565C52.1051 16.5455 50.128 15.69 47.5425 15.69C44.995 15.69 43.0179 16.5455 41.6111 18.2565C40.2423 19.9295 39.5579 22.7431 39.5579 26.6974V30.1193C39.5579 34.0356 40.2423 36.8683 41.6111 38.6173C43.0179 40.3283 44.995 41.1837 47.5425 41.1837C50.128 41.1837 52.1051 40.3283 53.4739 38.6173C54.8427 36.8683 55.5271 34.0356 55.5271 30.1193V26.6974Z" fill="#0E0935"/>
<path d="M0.624023 4.9678V3.54198H16.0229C19.1788 3.54198 21.7072 4.39747 23.6083 6.10846C25.5094 7.78143 26.46 10.0247 26.46 12.8384V14.3212C26.46 16.2984 25.8896 17.9903 24.749 19.3971C23.6463 20.7659 22.1064 21.7545 20.1293 22.3629C22.6007 22.7811 24.5589 23.7697 26.0037 25.3286C27.4485 26.8875 28.171 28.8456 28.171 31.203V32.6858C28.171 35.5755 27.1824 37.9139 25.2052 39.7009C23.2661 41.4499 20.6806 42.3244 17.4488 42.3244H0.624023V40.8986L3.76084 40.6134C4.36919 40.5374 4.7304 40.3853 4.84446 40.1572C4.95853 39.929 5.01556 39.1496 5.01556 37.8188V8.04758C5.01556 6.71681 4.95853 5.93736 4.84446 5.70923C4.7304 5.44307 4.36919 5.29099 3.76084 5.25297L0.624023 4.9678ZM16.0229 5.25297H8.72271V21.7925H16.0229C18.1902 21.7925 19.8251 21.2032 20.9278 20.0245C22.0304 18.8078 22.5817 17.0968 22.5817 14.8915V12.268C22.5817 10.0627 22.0304 8.35176 20.9278 7.13505C19.8251 5.88033 18.1902 5.25297 16.0229 5.25297ZM17.4488 23.5035H8.72271V40.6134H17.4488C19.6921 40.6134 21.384 39.967 22.5247 38.6743C23.7034 37.3816 24.2927 35.5755 24.2927 33.2562V30.6326C24.2927 28.4274 23.7034 26.6974 22.5247 25.4426C21.384 24.1499 19.6921 23.5035 17.4488 23.5035Z" fill="#0E0935"/>
</svg>
